<svg xmlns="http://www.w3.org/2000/svg" width="131" height="186" viewBox="0 0 131 186">
    <path fill="#F90" fill-rule="evenodd" d="M125.962 176c2.782 0 5.038 2.239 5.038 5s-2.256 5-5.038 5c-2.783 0-5.039-2.239-5.039-5s2.256-5 5.039-5zm-20.154 0c2.782 0 5.038 2.239 5.038 5s-2.256 5-5.038 5c-2.783 0-5.039-2.239-5.039-5s2.256-5 5.039-5zm-20.154 0c2.783 0 5.038 2.239 5.038 5s-2.255 5-5.038 5c-2.783 0-5.039-2.239-5.039-5s2.256-5 5.039-5zM65.5 176c2.783 0 5.038 2.239 5.038 5s-2.255 5-5.038 5c-2.783 0-5.038-2.239-5.038-5s2.255-5 5.038-5zm-20.154 0c2.783 0 5.039 2.239 5.039 5s-2.256 5-5.039 5-5.038-2.239-5.038-5 2.255-5 5.038-5zm-20.154 0c2.783 0 5.039 2.239 5.039 5s-2.256 5-5.039 5c-2.782 0-5.038-2.239-5.038-5s2.256-5 5.038-5zm-20.154 0c2.783 0 5.039 2.239 5.039 5s-2.256 5-5.039 5C2.256 186 0 183.761 0 181s2.256-5 5.038-5zm120.924-25c2.782 0 5.038 2.239 5.038 5s-2.256 5-5.038 5c-2.783 0-5.039-2.239-5.039-5s2.256-5 5.039-5zm-20.154 0c2.782 0 5.038 2.239 5.038 5s-2.256 5-5.038 5c-2.783 0-5.039-2.239-5.039-5s2.256-5 5.039-5zm-20.154 0c2.783 0 5.038 2.239 5.038 5s-2.255 5-5.038 5c-2.783 0-5.039-2.239-5.039-5s2.256-5 5.039-5zM65.5 151c2.783 0 5.038 2.239 5.038 5s-2.255 5-5.038 5c-2.783 0-5.038-2.239-5.038-5s2.255-5 5.038-5zm-20.154 0c2.783 0 5.039 2.239 5.039 5s-2.256 5-5.039 5-5.038-2.239-5.038-5 2.255-5 5.038-5zm-20.154 0c2.783 0 5.039 2.239 5.039 5s-2.256 5-5.039 5c-2.782 0-5.038-2.239-5.038-5s2.256-5 5.038-5zm-20.154 0c2.783 0 5.039 2.239 5.039 5s-2.256 5-5.039 5C2.256 161 0 158.761 0 156s2.256-5 5.038-5zm100.77-25c2.782 0 5.038 2.239 5.038 5s-2.256 5-5.038 5c-2.783 0-5.039-2.239-5.039-5s2.256-5 5.039-5zm-20.154 0c2.783 0 5.038 2.239 5.038 5s-2.255 5-5.038 5c-2.783 0-5.039-2.239-5.039-5s2.256-5 5.039-5zM65.5 126c2.783 0 5.038 2.239 5.038 5s-2.255 5-5.038 5c-2.783 0-5.038-2.239-5.038-5s2.255-5 5.038-5zm-20.154 0c2.783 0 5.039 2.239 5.039 5s-2.256 5-5.039 5-5.038-2.239-5.038-5 2.255-5 5.038-5zm-20.154 0c2.783 0 5.039 2.239 5.039 5s-2.256 5-5.039 5c-2.782 0-5.038-2.239-5.038-5s2.256-5 5.038-5zm-20.154 0c2.783 0 5.039 2.239 5.039 5s-2.256 5-5.039 5C2.256 136 0 133.761 0 131s2.256-5 5.038-5zm120.924 0c2.782 0 5.038 2.239 5.038 5s-2.256 5-5.038 5c-2.783 0-5.039-2.239-5.039-5s2.256-5 5.039-5zm-20.154-26c2.782 0 5.038 2.239 5.038 5s-2.256 5-5.038 5c-2.783 0-5.039-2.239-5.039-5s2.256-5 5.039-5zm-20.154 0c2.783 0 5.038 2.239 5.038 5s-2.255 5-5.038 5c-2.783 0-5.039-2.239-5.039-5s2.256-5 5.039-5zM65.5 100c2.783 0 5.038 2.239 5.038 5s-2.255 5-5.038 5c-2.783 0-5.038-2.239-5.038-5s2.255-5 5.038-5zm-20.154 0c2.783 0 5.039 2.239 5.039 5s-2.256 5-5.039 5-5.038-2.239-5.038-5 2.255-5 5.038-5zm-20.154 0c2.783 0 5.039 2.239 5.039 5s-2.256 5-5.039 5c-2.782 0-5.038-2.239-5.038-5s2.256-5 5.038-5zm-20.154 0c2.783 0 5.039 2.239 5.039 5s-2.256 5-5.039 5C2.256 110 0 107.761 0 105s2.256-5 5.038-5zm120.924 0c2.782 0 5.038 2.239 5.038 5s-2.256 5-5.038 5c-2.783 0-5.039-2.239-5.039-5s2.256-5 5.039-5zm0-24c2.782 0 5.038 2.239 5.038 5s-2.256 5-5.038 5c-2.783 0-5.039-2.239-5.039-5s2.256-5 5.039-5zm-20.154 0c2.782 0 5.038 2.239 5.038 5s-2.256 5-5.038 5c-2.783 0-5.039-2.239-5.039-5s2.256-5 5.039-5zm-20.154 0c2.783 0 5.038 2.239 5.038 5s-2.255 5-5.038 5c-2.783 0-5.039-2.239-5.039-5s2.256-5 5.039-5zM65.5 76c2.783 0 5.038 2.239 5.038 5s-2.255 5-5.038 5c-2.783 0-5.038-2.239-5.038-5s2.255-5 5.038-5zm-20.154 0c2.783 0 5.039 2.239 5.039 5s-2.256 5-5.039 5-5.038-2.239-5.038-5 2.255-5 5.038-5zm-20.154 0c2.783 0 5.039 2.239 5.039 5s-2.256 5-5.039 5c-2.782 0-5.038-2.239-5.038-5s2.256-5 5.038-5zM5.038 76c2.783 0 5.039 2.239 5.039 5s-2.256 5-5.039 5C2.256 86 0 83.761 0 81s2.256-5 5.038-5zM65.5 50c2.783 0 5.038 2.239 5.038 5s-2.255 5-5.038 5c-2.783 0-5.038-2.239-5.038-5s2.255-5 5.038-5zm-40.308 0c2.783 0 5.039 2.239 5.039 5s-2.256 5-5.039 5c-2.782 0-5.038-2.239-5.038-5s2.256-5 5.038-5zm20.154 0c2.783 0 5.039 2.239 5.039 5s-2.256 5-5.039 5-5.038-2.239-5.038-5 2.255-5 5.038-5zm60.462 0c2.782 0 5.038 2.239 5.038 5s-2.256 5-5.038 5c-2.783 0-5.039-2.239-5.039-5s2.256-5 5.039-5zm20.154 0c2.782 0 5.038 2.239 5.038 5s-2.256 5-5.038 5c-2.783 0-5.039-2.239-5.039-5s2.256-5 5.039-5zM5.038 50c2.783 0 5.039 2.239 5.039 5s-2.256 5-5.039 5C2.256 60 0 57.761 0 55s2.256-5 5.038-5zm80.616 0c2.783 0 5.038 2.239 5.038 5s-2.255 5-5.038 5c-2.783 0-5.039-2.239-5.039-5s2.256-5 5.039-5zm40.308-25c2.782 0 5.038 2.239 5.038 5s-2.256 5-5.038 5c-2.783 0-5.039-2.239-5.039-5s2.256-5 5.039-5zm-40.308 0c2.783 0 5.038 2.239 5.038 5s-2.255 5-5.038 5c-2.783 0-5.039-2.239-5.039-5s2.256-5 5.039-5zm-40.308 0c2.783 0 5.039 2.239 5.039 5s-2.256 5-5.039 5-5.038-2.239-5.038-5 2.255-5 5.038-5zm-20.154 0c2.783 0 5.039 2.239 5.039 5s-2.256 5-5.039 5c-2.782 0-5.038-2.239-5.038-5s2.256-5 5.038-5zM5.038 25c2.783 0 5.039 2.239 5.039 5s-2.256 5-5.039 5C2.256 35 0 32.761 0 30s2.256-5 5.038-5zm100.77 0c2.782 0 5.038 2.239 5.038 5s-2.256 5-5.038 5c-2.783 0-5.039-2.239-5.039-5s2.256-5 5.039-5zM65.5 25c2.783 0 5.038 2.239 5.038 5s-2.255 5-5.038 5c-2.783 0-5.038-2.239-5.038-5s2.255-5 5.038-5zM25.192 0c2.783 0 5.039 2.239 5.039 5s-2.256 5-5.039 5c-2.782 0-5.038-2.239-5.038-5s2.256-5 5.038-5zm20.154 0c2.783 0 5.039 2.239 5.039 5s-2.256 5-5.039 5-5.038-2.239-5.038-5 2.255-5 5.038-5zM65.5 0c2.783 0 5.038 2.239 5.038 5s-2.255 5-5.038 5c-2.783 0-5.038-2.239-5.038-5s2.255-5 5.038-5zm20.154 0c2.783 0 5.038 2.239 5.038 5s-2.255 5-5.038 5c-2.783 0-5.039-2.239-5.039-5s2.256-5 5.039-5zm20.154 0c2.782 0 5.038 2.239 5.038 5s-2.256 5-5.038 5c-2.783 0-5.039-2.239-5.039-5s2.256-5 5.039-5zm20.154 0C128.744 0 131 2.239 131 5s-2.256 5-5.038 5c-2.783 0-5.039-2.239-5.039-5s2.256-5 5.039-5zM5.038 0c2.783 0 5.039 2.239 5.039 5s-2.256 5-5.039 5C2.256 10 0 7.761 0 5s2.256-5 5.038-5z" opacity=".2"/>
</svg>
