<svg xmlns="http://www.w3.org/2000/svg" xmlns:xlink="http://www.w3.org/1999/xlink" width="85" height="115" viewBox="0 0 85 115">
    <defs>
        <path id="prefix__a" d="M2.907.18l-.015.014-2.73 2.921c-.113.12-.106.31.014.422.055.051.128.08.203.08h5.462c.165 0 .299-.134.299-.298 0-.076-.03-.149-.081-.204L3.329.194C3.268.13 3.19.099 3.11.099c-.073 0-.146.027-.203.08z"/>
        <path id="prefix__c" d="M.152.847c0-.422.341-.764.762-.764H23.23c.42 0 .762.342.762.764v15.91c0 .422-.342.765-.762.765H.914c-.421 0-.762-.343-.762-.765V.847z"/>
        <path id="prefix__e" d="M0.168 1.734L8.641 1.734 8.641 0.165 0.168 0.165z"/>
        <path id="prefix__g" d="M0.168 0.937L8.641 0.937 8.641 0.13 0.168 0.13z"/>
        <path id="prefix__i" d="M0.025 0.937L8.318 0.937 8.318 0.13 0.025 0.13z"/>
    </defs>
    <g fill="none" fill-rule="evenodd">
        <path fill="#ADE4FC" d="M15.066 44.045L12.995 44.998 12.044 42.92 14.115 41.967z"/>
        <g>
            <path fill="#00AC61" d="M12.813 28.554L0.13 22.559 10.652 0.152 23.335 6.146z" transform="translate(30.39 9)"/>
            <path fill="#00C679" d="M1.561 23.236L.068 22.53 10.59.123l1.494.705 9.87 4.665 1.382.653-10.523 22.408-11.252-5.318zM12.846 3.22c-.402.855-1.418 1.222-2.27.819L3.069 20.025c.852.403 1.217 1.422.816 2.277l6.79 3.21c.4-.85 1.412-1.216 2.26-.815l1.538-3.276 5.976-12.725c-.801-.379-1.17-1.305-.872-2.123l.06-.143z" transform="translate(30.39 9)"/>
            <path fill="#00C679" d="M13.266 10.687c-1.827-.863-4.006-.078-4.867 1.755-.86 1.833-.077 4.019 1.75 4.882 1.827.864 4.006.078 4.866-1.755.86-1.833.078-4.019-1.75-4.882z" transform="translate(30.39 9)"/>
            <path fill="#78EAAC" d="M10.67 11.856c.045-.032.089-.029.136.003.083.056.168.108.251.165.032.022.045.063.032.1-.007.017-.015.034-.025.05l-.314.522-.023.037.033.003c.135-.008.266.015.395.062.03.01.042.002.057-.023l.228-.378c.045-.074.087-.083.161-.037l.224.143c.07.046.082.09.04.162l-.228.375c-.014.024-.014.037.01.059.17.158.292.348.35.575.044.177.049.355.02.533-.024.139-.063.273-.12.4l-.017.045c.011 0 .02.002.027 0 .19-.03.38-.063.57-.092.201-.03.402-.058.603-.084.275-.036.55-.068.826-.102l.012-.002c.099-.02.14.038.139.12l-.287.475c-.029.047-.075.083-.13.09 0 0 0 .001 0 0-.16.023-.32.042-.479.064-.138.018-.276.038-.415.058-.23.034-.462.067-.693.103-.195.03-.389.065-.583.1-.035.006-.066 0-.096-.02l-.295-.188c-.067-.043-.079-.095-.038-.162l.157-.261c.094-.155.172-.316.204-.498.026-.138.021-.275-.037-.408-.027-.06-.062-.116-.112-.167l-.023.037-.61 1.01c-.01.016-.02.032-.032.046-.027.031-.074.037-.11.015-.094-.057-.187-.116-.278-.178-.04-.026-.046-.069-.026-.112.006-.013.013-.025.021-.038l.59-.976.021-.036c-.012-.003-.02-.006-.027-.006-.13-.007-.244.04-.344.115-.123.092-.219.21-.298.342l-.235.387c-.045.074-.1.08-.178.024-.09-.065-.184-.122-.28-.178-.052-.03-.079-.069-.07-.127l1.296-2.147" transform="translate(30.39 9)"/>
        </g>
        <g>
            <path fill="#00BB68" d="M10.246 23.433L0 18.488 8.501 0 18.747 4.946z" transform="rotate(-61 41.42 24.085)"/>
            <path fill="#00DF87" d="M1.203 19.05L0 18.468 8.478 0 9.68.582l9.066 4.383-8.478 18.468-9.066-4.383zm9.092-16.497c-.323.705-1.142 1.007-1.829.675L2.418 16.404c.687.332.98 1.172.658 1.877l5.47 2.645c.323-.701 1.138-1.002 1.82-.671l6.055-13.189c-.684-.33-.977-1.166-.655-1.868z" transform="rotate(-61 41.42 24.085)"/>
            <path fill="#00D380" d="M10.817 8.872c-1.463-.69-3.208-.062-3.898 1.401-.689 1.463-.062 3.208 1.401 3.897 1.464.69 3.208.062 3.898-1.4.689-1.464.062-3.209-1.401-3.898z" transform="rotate(-61 41.42 24.085)"/>
            <path fill="#78EAAC" d="M10.355 13.046c-.032.035-.069.041-.112.025-.076-.03-.154-.055-.23-.084-.03-.012-.047-.043-.042-.075.003-.015.008-.031.014-.046l.181-.488.013-.034c-.013.001-.02.001-.027.004-.11.033-.222.04-.334.028-.026-.003-.035.007-.044.03l-.131.354c-.026.069-.06.085-.127.062l-.205-.071c-.065-.023-.081-.057-.056-.124.043-.117.086-.235.131-.351.008-.023.006-.033-.016-.046-.164-.095-.291-.225-.372-.398-.063-.135-.093-.28-.095-.43-.002-.118.011-.235.038-.35l.009-.04-.023.005c-.151.064-.303.128-.455.19-.16.065-.321.128-.483.19l-.663.248-.01.004c-.078.036-.12-.003-.132-.07l.166-.444c.017-.044.05-.083.094-.1l.384-.147.332-.13c.185-.075.37-.148.555-.224.155-.064.31-.131.464-.198.028-.012.054-.013.082-.004l.27.095c.061.021.078.06.055.124l-.091.244c-.054.145-.094.292-.094.446 0 .118.023.228.09.325.031.044.068.082.117.114l.013-.035.352-.945.02-.044c.018-.03.056-.044.09-.034.085.027.17.057.253.089.036.014.048.047.038.086-.003.012-.007.023-.012.035l-.34.913-.013.034h.023c.109-.021.195-.082.267-.163.087-.1.148-.216.194-.339l.136-.362c.026-.069.07-.086.142-.055.084.035.17.062.257.088.047.014.075.04.076.09l-.749 2.008" transform="rotate(-61 41.42 24.085)"/>
        </g>
        <g>
            <path fill="#00BB68" d="M8.903 20.271L0 15.993 7.386 0 16.29 4.278z" transform="rotate(22 -67.195 165.67)"/>
            <path fill="#00D380" d="M0 15.977L7.367 0l1.045.503 6.91 3.326.968.466L8.923 20.27 0 15.977zM8.946 2.209c-.281.61-.993.87-1.59.583L2.102 14.191c.597.287.852 1.014.571 1.623l4.755 2.289c.28-.607.987-.867 1.581-.581l5.26-11.41c-.593-.285-.848-1.008-.568-1.615z" transform="rotate(22 -67.195 165.67)"/>
            <path fill="#00D380" d="M9.405 7.482c-1.265-.596-2.775-.054-3.37 1.212-.597 1.266-.055 2.775 1.211 3.371 1.266.597 2.775.054 3.372-1.212.596-1.265.053-2.775-1.213-3.371z" transform="rotate(22 -67.195 165.67)"/>
            <path fill="#78EAAC" d="M7.506 8.413c.032-.022.063-.02.098.005.06.043.123.084.184.127.023.017.033.048.025.074-.005.013-.01.025-.017.037l-.213.375-.015.026c.011.002.017.004.023.003.097-.002.192.018.285.055.021.009.03.003.04-.015.05-.091.103-.182.155-.272.03-.053.06-.06.114-.023l.164.11c.052.035.061.068.032.12-.05.09-.102.18-.154.27-.01.017-.009.026.008.043.127.12.218.262.264.43.037.13.044.262.027.392-.013.1-.038.198-.075.29l-.012.033h.02c.135-.018.27-.037.406-.054.143-.017.286-.033.43-.048.196-.02.392-.037.588-.055l.01-.001c.07-.012.1.03.102.091l-.195.342c-.019.034-.051.06-.09.063h-.001c-.114.013-.228.023-.341.035-.099.01-.198.022-.296.033-.165.02-.33.038-.494.06-.14.018-.278.038-.416.059-.025.004-.047-.001-.069-.016l-.216-.146c-.049-.033-.058-.07-.031-.119l.107-.188c.063-.111.115-.228.134-.36.015-.101.009-.202-.036-.3-.02-.046-.047-.087-.084-.126-.006.01-.01.019-.016.027l-.413.727c-.006.011-.014.022-.022.032-.019.023-.052.026-.079.008-.068-.043-.136-.089-.203-.136-.029-.02-.034-.052-.021-.083.004-.01.009-.018.014-.027l.4-.702.014-.027-.02-.005c-.093-.008-.173.024-.244.077-.085.065-.151.149-.205.244l-.16.278c-.03.053-.069.057-.126.014-.066-.05-.135-.094-.205-.137-.037-.024-.058-.053-.053-.096l.878-1.544" transform="rotate(22 -67.195 165.67)"/>
        </g>
        <g>
            <path fill="#D8AA20" d="M7.548 3.384C6.73 1.466 4.518.575 2.605 1.396c-1.913.82-2.8 3.04-1.982 4.959.817 1.919 3.03 2.809 4.943 1.989 1.912-.82 2.8-3.041 1.982-4.96" transform="translate(52.833 31.805)"/>
            <path fill="#FFC900" d="M8.155 2.636C7.337.718 5.125-.173 3.212.648c-1.913.82-2.8 3.04-1.983 4.96.818 1.918 3.032 2.808 4.944 1.988 1.912-.82 2.8-3.041 1.982-4.96" transform="translate(52.833 31.805)"/>
            <path fill="#FFA924" d="M5.16 2.412c.05 0 .08.024.098.069.032.08.067.16.098.24.013.03 0 .066-.027.085-.014.01-.029.017-.044.024l-.493.211-.035.015c.01.01.016.015.022.018.102.062.186.143.255.238.016.023.03.023.053.013l.358-.154c.07-.03.105-.015.135.053l.09.21c.028.068.014.105-.054.134-.118.052-.236.103-.355.152-.023.01-.029.02-.023.046.044.195.035.388-.038.576-.058.147-.145.274-.257.385-.087.086-.183.16-.289.223l-.035.022.02.014c.153.072.307.142.46.216.16.077.32.157.48.237.217.11.433.223.65.335l.01.005c.081.034.082.094.04.152l-.45.193c-.044.019-.096.021-.14 0-.127-.064-.253-.129-.38-.192-.109-.055-.219-.11-.33-.163L4.426 5.5c-.157-.074-.316-.145-.474-.217-.028-.012-.048-.032-.06-.06l-.118-.278c-.026-.063-.009-.105.054-.132l.248-.107c.146-.062.284-.138.4-.249.088-.085.155-.183.18-.305.012-.056.014-.112.004-.173l-.036.015-.954.41c-.016.007-.031.012-.047.016-.036.009-.073-.01-.088-.044-.04-.086-.076-.173-.111-.261-.015-.038.002-.071.038-.092.01-.006.023-.01.034-.016l.923-.396.035-.015-.017-.017c-.091-.07-.197-.092-.308-.089-.136.005-.265.04-.39.094l-.366.156c-.07.03-.114.008-.141-.07-.032-.09-.072-.177-.113-.263-.023-.046-.023-.087.014-.124l2.029-.87" transform="translate(52.833 31.805)"/>
        </g>
        <g>
            <path fill="#D8AA20" d="M8.337 3.723c-.943-2.206-3.495-3.23-5.7-2.286C.43 2.38-.594 4.932.35 7.137c.943 2.206 3.495 3.229 5.7 2.286 2.206-.943 3.229-3.495 2.286-5.7" transform="rotate(29 -45.99 67.177)"/>
            <path fill="#FFC900" d="M9.06 2.637C8.119.43 5.567-.593 3.36.35c-2.205.943-3.228 3.495-2.285 5.7.943 2.206 3.495 3.229 5.7 2.286 2.206-.943 3.229-3.495 2.286-5.7" transform="rotate(29 -45.99 67.177)"/>
            <path fill="#FFA924" d="M5.584 2.534c.055 0 .09.027.11.08.036.093.075.185.11.28.014.036.001.077-.03.099-.016.01-.033.02-.05.027l-.556.247-.04.017.025.022c.115.071.21.165.288.277.018.026.033.027.06.015.134-.061.269-.12.404-.18.078-.034.119-.018.152.063.035.081.068.163.102.245.032.078.016.121-.06.155-.134.06-.268.12-.402.178-.026.01-.033.022-.026.053.05.228.04.453-.043.671-.065.171-.164.32-.29.45-.098.1-.207.186-.326.259-.013.007-.024.015-.041.026l.022.016c.174.083.348.166.52.251.182.09.363.183.543.277.245.129.49.26.734.39l.012.006c.091.04.092.11.044.177l-.507.225c-.05.022-.11.025-.159 0-.144-.074-.285-.15-.428-.223-.124-.065-.248-.128-.373-.19-.209-.105-.417-.211-.627-.314-.177-.086-.356-.17-.535-.252-.032-.015-.054-.038-.068-.071l-.133-.324c-.03-.074-.01-.122.061-.154l.28-.124c.165-.073.321-.16.452-.29.1-.1.174-.214.203-.356.013-.065.016-.13.005-.202l-.04.018-1.08.478c-.016.007-.034.013-.052.018-.04.01-.082-.012-.1-.051-.044-.1-.086-.202-.125-.305-.017-.044.003-.082.043-.106.012-.008.026-.013.04-.019l1.042-.462.039-.017c-.009-.01-.014-.016-.02-.02-.102-.081-.221-.108-.347-.104-.154.005-.3.047-.44.11l-.415.181c-.08.035-.128.01-.16-.081-.035-.105-.08-.206-.127-.306-.025-.055-.025-.103.016-.146l2.293-1.014" transform="rotate(29 -45.99 67.177)"/>
        </g>
        <g transform="rotate(16 8.653 70.739)">
            <path fill="#D8AA20" d="M8.337 19.723c-.943-2.206-3.495-3.23-5.7-2.286-2.206.943-3.23 3.495-2.286 5.7.943 2.206 3.495 3.229 5.7 2.286 2.206-.943 3.229-3.495 2.286-5.7"/>
            <path fill="#FFC900" d="M9.06 18.637c-.942-2.206-3.494-3.23-5.7-2.286-2.205.943-3.228 3.495-2.285 5.7.943 2.206 3.495 3.229 5.7 2.286 2.206-.943 3.229-3.495 2.286-5.7"/>
            <circle cx="41.35" cy="11.18" r="1.5" fill="#49B2FF" fill-rule="nonzero" opacity=".4"/>
            <circle cx="51.231" cy="2.105" r="1.5" fill="#49B2FF" fill-rule="nonzero" opacity=".4"/>
            <circle cx="64.364" cy="16.732" r="2.5" fill="#49B2FF" fill-rule="nonzero" opacity=".4"/>
            <path fill="#FFA924" d="M5.584 18.534c.055 0 .09.027.11.08.036.093.075.185.11.28.014.036.001.077-.03.099-.016.01-.033.02-.05.027l-.556.247-.04.017.025.022c.115.071.21.165.288.277.018.026.033.027.06.015.134-.061.269-.12.404-.18.078-.034.119-.018.152.063.035.081.068.163.102.245.032.078.016.121-.06.155-.134.06-.268.12-.402.178-.026.01-.033.022-.026.053.05.228.04.453-.043.671-.065.171-.164.32-.29.45-.098.1-.207.186-.326.259-.013.007-.024.015-.041.026l.022.016c.174.083.348.166.52.251.182.09.363.183.543.277.245.129.49.26.734.39l.012.006c.091.04.092.11.044.177l-.507.225c-.05.022-.11.025-.159 0-.144-.074-.285-.15-.428-.223-.124-.065-.248-.128-.373-.19-.209-.105-.417-.211-.627-.314-.177-.086-.356-.17-.535-.252-.032-.015-.054-.038-.068-.071l-.133-.324c-.03-.074-.01-.122.061-.154l.28-.124c.165-.073.321-.16.452-.29.1-.1.174-.214.203-.356.013-.065.016-.13.005-.202l-.04.018-1.08.478c-.016.007-.034.013-.052.018-.04.01-.082-.012-.1-.051-.044-.1-.086-.202-.125-.305-.017-.044.003-.082.043-.106.012-.008.026-.013.04-.019l1.042-.462.039-.017c-.009-.01-.014-.016-.02-.02-.102-.081-.221-.108-.347-.104-.154.005-.3.047-.44.11l-.415.181c-.08.035-.128.01-.16-.081-.035-.105-.08-.206-.127-.306-.025-.055-.025-.103.016-.146l2.293-1.014"/>
        </g>
        <path fill="#0064C0" d="M23.195 38.756h25.772c1.882 0 3.408 1.53 3.408 3.418v51.221c0 1.888-1.526 3.419-3.408 3.419H23.195c-1.882 0-3.408-1.53-3.408-3.419v-51.22c0-1.889 1.526-3.42 3.408-3.42"/>
        <path fill="#F8FDFF" d="M21.824 90.018L50.603 90.018 50.603 45.551 21.824 45.551z"/>
        <path fill="#0089ED" d="M26.9 48.294l-2.934 3.227c-.113.123-.104.315.02.427.055.051.127.08.202.08h5.87c.166 0 .301-.136.301-.303 0-.075-.028-.148-.079-.204l-2.934-3.227c-.113-.123-.303-.132-.426-.02l-.02.02"/>
        <path fill="#48B3FF" d="M26.935 50.257l-2.762 2.965c-.114.122-.108.313.014.427.056.053.13.082.206.082h5.525c.166 0 .3-.135.3-.303 0-.076-.028-.15-.08-.206l-2.763-2.965c-.113-.122-.304-.128-.426-.014l-.014.014"/>
        <g transform="translate(24.235 50.267)">
            <mask id="prefix__b" fill="#fff">
                <use xlink:href="#prefix__a"/>
            </mask>
            <path fill="#84D3F7" d="M-0.217 3.915L6.438 3.915 6.438 -0.199 -0.217 -0.199z" mask="url(#prefix__b)"/>
        </g>
        <g>
            <path fill="#0089ED" d="M10.214.261h13.445c.483 0 .874.393.874.877 0 .485-.391.877-.874.877H10.214c-.483 0-.875-.392-.875-.877 0-.484.392-.877.875-.877z" transform="translate(23.873 49.905)"/>
            <g transform="translate(23.873 49.905) translate(.136 7.502)">
                <mask id="prefix__d" fill="#fff">
                    <use xlink:href="#prefix__c"/>
                </mask>
                <path stroke="#ADE4FC" stroke-width=".737" d="M-2.828 42.434L27.965 42.434 27.965 -5.398 -2.828 -5.398z" mask="url(#prefix__d)"/>
                <path stroke="#ADE4FC" stroke-width=".737" d="M.152.847c0-.422.341-.764.762-.764H23.23c.42 0 .762.342.762.764v15.91c0 .422-.342.765-.762.765H.914c-.421 0-.762-.343-.762-.765V.847z"/>
            </g>
            <path fill="#00C96E" d="M4.81 19.339c-.127 0-.254-.055-.342-.161-.158-.19-.133-.472.056-.631l3.738-3.135c.166-.139.407-.139.573 0l2.519 2.113 7.842-6.58c.188-.158.47-.133.629.057.158.19.133.472-.057.63l-8.128 6.82c-.166.14-.407.14-.573 0L8.548 16.34l-3.451 2.894c-.084.07-.185.105-.286.105" transform="translate(23.873 49.905)"/>
            <path fill="#48B3FF" d="M2.686 11.289L11.256 11.289 11.256 9.856 2.686 9.856z" transform="translate(23.873 49.905)"/>
        </g>
        <g transform="translate(26.407 59.679)">
            <mask id="prefix__f" fill="#fff">
                <use xlink:href="#prefix__e"/>
            </mask>
            <path fill="#48B3FF" d="M-4.539 42.529L24.645 42.529 24.645 -7.68 -4.539 -7.68z" mask="url(#prefix__f)"/>
            <path fill="#48B3FF" d="M-2.186 4.349L10.994 4.349 10.994 -2.45 -2.186 -2.45z" mask="url(#prefix__f)"/>
        </g>
        <path fill="#48B3FF" d="M26.769 72.348L35.095 72.348 35.095 71.624 26.769 71.624z"/>
        <g transform="translate(26.407 71.262)">
            <mask id="prefix__h" fill="#fff">
                <use xlink:href="#prefix__g"/>
            </mask>
            <path fill="#48B3FF" d="M-4.539 22.724L24.645 22.724 24.645 -16.009 -4.539 -16.009z" mask="url(#prefix__h)"/>
            <path fill="#48B3FF" d="M-2.186 2.954L10.994 2.954 10.994 -1.888 -2.186 -1.888z" mask="url(#prefix__h)"/>
        </g>
        <path fill="#48B3FF" d="M36.905 72.348L45.231 72.348 45.231 71.624 36.905 71.624z"/>
        <g transform="translate(36.905 71.262)">
            <mask id="prefix__j" fill="#fff">
                <use xlink:href="#prefix__i"/>
            </mask>
            <path fill="#48B3FF" d="M-14.717 22.724L13.846 22.724 13.846 -16.009 -14.717 -16.009z" mask="url(#prefix__j)"/>
            <path fill="#48B3FF" d="M-2.278 2.954L10.621 2.954 10.621 -1.888 -2.278 -1.888z" mask="url(#prefix__j)"/>
        </g>
        <g>
            <path fill="#84D3F7" d="M20.275 37.416c0-.385.31-.696.694-.696h19.178c.383 0 .694.311.694.696v6.667c0 .385-.311.697-.694.697H20.969c-.384 0-.694-.312-.694-.697v-6.667z" transform="translate(5.412 41.58)"/>
            <g fill="#FFF">
                <path d="M.062 1.964L.443 1.964.443.073.062.073zM2.081 1.964L1.7 1.964 1.143.724 1.143 1.964.763 1.964.763.073 1.143.073 1.701 1.315 1.701.073 2.081.073zM3 1.445L3.317.073 3.742.073 3.198 1.964 2.802 1.964 2.262.073 2.684.073zM4.893 1.146L4.3 1.146 4.3 1.647 5.002 1.647 5.002 1.964 3.92 1.964 3.92.073 4.999.073 4.999.391 4.3.391 4.3.838 4.893.838zM6.017 1.468c0-.077-.02-.135-.059-.175-.04-.04-.11-.08-.214-.122-.189-.072-.325-.157-.408-.253-.083-.097-.124-.21-.124-.342 0-.16.056-.288.169-.384.112-.097.256-.145.429-.145.116 0 .219.024.31.073.09.05.16.118.209.207.049.09.073.191.073.305h-.38c0-.089-.018-.156-.056-.203C5.93.383 5.874.36 5.804.36c-.067 0-.119.02-.156.059-.037.04-.055.092-.055.16 0 .051.02.098.062.14.041.042.114.086.22.13.184.068.317.15.4.246.084.097.126.22.126.37 0 .165-.053.294-.157.386-.105.093-.247.14-.426.14-.122 0-.233-.026-.333-.076s-.179-.122-.235-.216c-.057-.093-.085-.204-.085-.331h.382c0 .11.021.188.064.238.042.05.111.074.207.074.133 0 .2-.07.2-.212M7.874.391L7.408.391 7.408 1.964 7.026 1.964 7.026.391 6.567.391 6.567.073 7.874.073z" transform="translate(5.412 41.58) translate(26.286 39.703)"/>
            </g>
            <path fill="#0089DF" d="M36.634 1.338H27.42c-.225 0-.407-.182-.407-.407 0-.225.182-.407.407-.407h9.213c.224 0 .406.182.406.407 0 .225-.182.407-.406.407M25.44.93c0-.316-.255-.573-.571-.573-.316 0-.572.257-.572.574 0 .317.256.574.572.574.316 0 .572-.257.572-.574M32.559 51.947c0-.974-.787-1.763-1.757-1.763-.97 0-1.757.79-1.757 1.763 0 .973.787 1.762 1.757 1.762.97 0 1.757-.789 1.757-1.762" transform="translate(5.412 41.58)"/>
            <path fill="#48B3FF" d="M3.602 55.468L36.871 55.468 36.871 55.001 3.602 55.001zM.16 55.468L1.88 55.468 1.88 55.001.16 55.001zM56.182 55.934L64.738 55.934 64.738 55.468 56.182 55.468zM39.582 42.062c0-2.072-1.674-3.753-3.74-3.753-2.066 0-3.74 1.68-3.74 3.753 0 2.072 1.674 3.752 3.74 3.752 2.066 0 3.74-1.68 3.74-3.752" transform="translate(5.412 41.58)"/>
            <path fill="#48B3FF" d="M38.525 42.062c0-1.487-1.201-2.692-2.683-2.692-1.482 0-2.684 1.205-2.684 2.692s1.202 2.692 2.684 2.692c1.482 0 2.683-1.205 2.683-2.692" transform="translate(5.412 41.58)"/>
            <path fill="#FFD795" d="M51.046 48.949l-.137-.413c-.347-1.052-1.31-1.5-2.459-1.147l-.03.01c-.483.154-.82.413-1 .769-.135.265-.165.546-.14.824-.123-.402-.24-.794-.354-1.176-.541-1.822-1.7-1.78-2.341-1.592-.519.155-.873.425-1.084.819-.165.309-.226.67-.181 1.092-.44-1.44-1.238-2.016-2.373-1.71-.538.148-.931.427-1.154.833-.208.379-.235.803-.185 1.21-.632-2.07-1.263-4.14-1.89-6.21-.425-1.402-1.192-1.966-2.28-1.677-.54.14-.924.42-1.147.828-.267.487-.276 1.104-.029 1.888.492 1.561.974 3.157 1.44 4.7l1.036 3.406c.454 1.492.908 2.984 1.368 4.474.403 1.304-.1 1.84-.584 2.162-.538.359-1.054.402-1.963-.493-.809-.795-1.69-1.622-2.858-2.682-.943-.855-1.962-.869-2.724-.032-.454.498-.526.985-.507 1.306.03.509.306 1 .795 1.422 2.578 2.217 4.62 4.842 6.657 7.56 1.966 2.624 4.31 3.58 6.833 2.805.334-.103.672-.236 1.012-.4.656-.315 1.379-.507 2.144-.71.351-.093.715-.19 1.072-.299 4.745-1.457 4.89-1.643 5.179-6.64.222-3.866-.967-7.456-2.116-10.927" transform="translate(5.412 41.58)"/>
            <path fill="#0059B4" d="M49.366 69.993c-1.764.83-3.54 1.632-5.287 2.495-1.653.817-2.095-.358-2.63-1.495-.54-1.147-1.108-2.214.56-2.978 3.542-1.624 7.061-3.3 10.585-4.966 1.686-.797 2.078.511 2.606 1.592.528 1.084 1.014 2.158-.541 2.869-1.773.81-3.53 1.653-5.293 2.483" transform="translate(5.412 41.58)"/>
            <path fill="#FFFCF3" d="M35.173 43.03c-.186.063-.386-.041-.442-.23l-.064-.219c-.214-.633.126-1.32.757-1.534.631-.213 1.316.127 1.529.76l.072.244c.053.18-.045.368-.221.427l-1.63.553zM31.257 54.958c.363.11.525.257.799.838.066.141.039.308-.068.422-.212.225-.541.569-.76.797-.136.14-.357.156-.51.033-.37-.297-.947-.888-.69-1.534.182-.459.757-.698 1.229-.556" transform="translate(5.412 41.58)"/>
            <path fill="#40AEF2" d="M43.544 70.443c0-.41-.331-.743-.74-.743-.41 0-.741.333-.741.743s.331.744.74.744c.41 0 .741-.333.741-.744" transform="translate(5.412 41.58)"/>
        </g>
    </g>
</svg>
